<?xml version="1.0"?>
<svg xmlns="http://www.w3.org/2000/svg" height="512px" viewBox="0 0 512.001 512" width="512px"><path d="m502 511.988281c-.648438 0-1.308594-.070312-1.949219-.199219-.640625-.121093-1.269531-.320312-1.871093-.570312-.609376-.25-1.1875-.558594-1.730469-.917969-.550781-.359375-1.058594-.78125-1.519531-1.242187-.460938-.457032-.878907-.96875-1.238282-1.519532-.371094-.539062-.671875-1.121093-.921875-1.730468-.25-.597656-.449219-1.230469-.570312-1.867188-.128907-.640625-.199219-1.300781-.199219-1.953125 0-.648437.070312-1.308593.199219-1.949219.121093-.640624.320312-1.269531.570312-1.871093.25-.609375.550781-1.1875.921875-1.726563.359375-.550781.777344-1.0625 1.238282-1.523437.460937-.457031.96875-.878907 1.519531-1.238281.542969-.359376 1.121093-.667969 1.730469-.917969.601562-.25 1.230468-.453125 1.871093-.570313 1.289063-.261718 2.621094-.261718 3.898438 0 .640625.117188 1.269531.320313 1.871093.570313.609376.25 1.1875.558593 1.730469.917969.546875.359374 1.058594.78125 1.519531 1.238281.460938.460937.878907.972656 1.238282 1.523437.359375.539063.671875 1.117188.921875 1.726563.25.601562.449219 1.230469.570312 1.871093.128907.640626.199219 1.300782.199219 1.949219 0 .652344-.070312 1.3125-.199219 1.953125-.121093.636719-.320312 1.269532-.570312 1.867188-.25.609375-.5625 1.191406-.921875 1.730468-.359375.550782-.777344 1.0625-1.238282 1.519532-.460937.460937-.972656.882812-1.519531 1.242187-.542969.359375-1.121093.667969-1.730469.917969-.601562.25-1.230468.449219-1.871093.570312-.640625.128907-1.300781.199219-1.949219.199219zm0 0" fill="#ff8800"/><path d="m459 491.988281h-174.433594v-22.707031c0-21.074219-17.144531-38.21875-38.21875-38.21875h-66.140625v-6.53125c19.921875-6.960938 36.691407-17.8125 48.808594-31.652344 14.878906-17 22.746094-38.582031 22.746094-62.417968v-2.808594c4.8125-.722656 8.503906-4.875 8.503906-9.886719 0-5.015625-3.691406-9.164063-8.503906-9.890625v-26.878906c.625.121094 1.257812.179687 1.882812.179687 2.214844 0 4.394531-.734375 6.171875-2.132812 2.417969-1.894531 3.828125-4.792969 3.828125-7.867188v-37.492187c0-4.683594-3.246093-8.738282-7.816406-9.757813-1.300781-.292969-2.601563-.578125-3.90625-.859375v-1.449218c0-47.007813-38.242187-85.25-85.25-85.25h-48.78125c-47.003906 0-85.25 38.242187-85.25 85.25v1.449218c-1.300781.28125-2.605469.566406-3.902344.859375-4.570312 1.019531-7.816406 5.074219-7.816406 9.757813v37.492187c0 3.070313 1.410156 5.972657 3.824219 7.867188 2.28125 1.792969 5.222656 2.496093 8.054687 1.953125v26.882812c-4.8125.722656-8.5 4.875-8.5 9.886719s3.6875 9.164063 8.5 9.886719v2.8125c0 23.832031 7.867188 45.417968 22.75 62.414062 12.117188 13.839844 28.886719 24.695313 48.808594 31.65625v6.527344h-66.140625c-21.074219 0-38.21875 17.144531-38.21875 38.21875v32.707031c0 5.523438 4.476562 10 10 10h449c5.523438 0 10-4.476562 10-10 0-5.519531-4.476562-10-10-10zm-233.191406-184.222656c-4.453125-17.300781-20.1875-30.121094-38.859375-30.121094s-34.40625 12.820313-38.859375 30.121094h-11.613282c-4.453124-17.300781-20.1875-30.121094-38.859374-30.121094-18.671876 0-34.40625 12.820313-38.859376 30.121094h-5.957031v-31.199219c58.910157-11.703125 120.054688-11.703125 178.960938 0v31.199219zm-18.738282 10c0 11.09375-9.027343 20.121094-20.121093 20.121094s-20.121094-9.027344-20.121094-20.121094c0-11.097656 9.027344-20.121094 20.121094-20.121094s20.121093 9.027344 20.121093 20.121094zm-89.332031 0c0 11.09375-9.027343 20.121094-20.121093 20.121094s-20.121094-9.027344-20.121094-20.121094c0-11.097656 9.027344-20.121094 20.121094-20.121094s20.121093 9.027344 20.121093 20.121094zm-76.816406-59.160156v-16.847657c66.492187-13.734374 136.230469-13.734374 202.722656 0v16.847657c-33.285156-7.207031-67.324219-10.8125-101.363281-10.8125-34.035156 0-68.074219 3.605469-101.359375 10.8125zm190.957031-39.453125c-19.117187-3.351563-38.296875-5.625-57.503906-6.824219v-55.511719c31.5625 3.726563 56.296875 30.078125 57.503906 62.335938zm-77.503906-62.789063v55.109375c-4.03125-.097656-8.0625-.144531-12.09375-.144531-4.027344 0-8.058594.046875-12.089844.144531v-55.109375zm-44.183594.453125v55.511719c-19.207031 1.199219-38.386718 3.472656-57.503906 6.824219 1.207031-32.257813 25.941406-58.609375 57.503906-62.335938zm6.96875 250.824219c-40.898437-11.941406-64.359375-40.070313-64.359375-77.179687v-2.695313h5.957031c4.453126 17.300781 20.1875 30.121094 38.859376 30.121094 18.671874 0 34.40625-12.820313 38.859374-30.121094h11.613282c4.453125 17.300781 20.1875 30.121094 38.859375 30.121094s34.40625-12.820313 38.859375-30.121094h5.953125v2.695313c0 37.109374-23.457031 65.238281-64.355469 77.179687-4.265625 1.242187-7.199219 5.152344-7.199219 9.597656v13.824219h-35.847656v-13.824219c0-4.445312-2.933594-8.355469-7.199219-9.597656zm-97.160156 84.347656v-22.707031c0-10.046875 8.171875-18.21875 18.21875-18.21875h208.128906c10.046875 0 18.21875 8.171875 18.21875 18.21875v22.707031zm0 0" fill="#ff8800"/><path d="m362.375 253.042969c-8.339844 0-16.683594-.816407-24.796875-2.429688-4.101563-.816406-7.265625-4.097656-7.925781-8.230469l-1.261719-7.890624c-6.335937-1.988282-12.476563-4.53125-18.359375-7.597657l-6.460938 4.679688c-3.386718 2.453125-7.945312 2.539062-11.421874.214843-13.949219-9.316406-25.75-21.113281-35.070313-35.0625-2.324219-3.480468-2.238281-8.035156.214844-11.425781l4.679687-6.457031c-3.066406-5.878906-5.609375-12.015625-7.597656-18.351562l-7.894531-1.261719c-4.128907-.660157-7.414063-3.820313-8.230469-7.921875-1.613281-8.113282-2.429688-16.453125-2.429688-24.792969s.816407-16.683594 2.429688-24.789063c.816406-4.105468 4.101562-7.265624 8.230469-7.925781l7.894531-1.261719c1.988281-6.335937 4.527344-12.472656 7.597656-18.351562l-4.679687-6.457031c-2.453125-3.390625-2.539063-7.945313-.214844-11.425781 9.320313-13.949219 21.121094-25.746094 35.070313-35.0625 3.476562-2.324219 8.035156-2.238282 11.421874.214843l6.460938 4.679688c5.882812-3.066407 12.023438-5.605469 18.359375-7.597657l1.261719-7.890624c.660156-4.132813 3.824218-7.414063 7.925781-8.230469 16.226563-3.222657 33.359375-3.222657 49.589844 0 4.105469.816406 7.265625 4.097656 7.929687 8.230469l1.261719 7.890624c6.335937 1.988282 12.476563 4.53125 18.355469 7.597657l6.464844-4.679688c3.386718-2.453125 7.941406-2.539062 11.417968-.214843 13.949219 9.316406 25.75 21.113281 35.074219 35.0625 2.320313 3.476562 2.234375 8.035156-.21875 11.421874l-4.679687 6.460938c3.070312 5.878906 5.609374 12.015625 7.597656 18.347656l7.898437 1.265625c4.128907.65625 7.414063 3.820313 8.226563 7.921875 1.613281 8.117188 2.433594 16.457032 2.433594 24.792969s-.820313 16.675781-2.433594 24.789063c-.8125 4.105468-4.097656 7.265624-8.226563 7.925781l-7.898437 1.261719c-1.988282 6.335937-4.527344 12.472656-7.597656 18.351562l4.679687 6.457031c2.453125 3.390625 2.539063 7.945313.21875 11.425781-9.320313 13.945313-21.121094 25.742188-35.074219 35.0625-3.476562 2.320313-8.03125 2.238282-11.417968-.214843l-6.464844-4.679688c-5.878906 3.066407-12.019532 5.605469-18.355469 7.59375l-1.261719 7.894531c-.664062 4.128907-3.824218 7.414063-7.929687 8.226563-8.113281 1.617187-16.457031 2.433594-24.792969 2.433594zm-14.109375-20.925781c9.324219 1.230468 18.890625 1.230468 28.21875 0l1.132813-7.09375c.632812-3.957032 3.5625-7.152344 7.449218-8.121094 8.886719-2.222656 17.363282-5.726563 25.199219-10.429688 3.433594-2.058594 7.765625-1.871094 11.007813.476563l5.8125 4.210937c7.523437-5.75 14.203124-12.425781 19.953124-19.945312l-4.207031-5.808594c-2.351562-3.246094-2.539062-7.578125-.476562-11.011719 4.699219-7.835937 8.207031-16.308593 10.425781-25.191406.972656-3.886719 4.167969-6.816406 8.125-7.449219l7.097656-1.132812c.613282-4.664063.925782-9.382813.925782-14.105469 0-4.71875-.3125-9.441406-.925782-14.101563l-7.097656-1.132812c-3.957031-.632812-7.152344-3.5625-8.125-7.453125-2.21875-8.878906-5.726562-17.355469-10.425781-25.1875-2.0625-3.4375-1.875-7.769531.476562-11.015625l4.207031-5.804688c-5.75-7.519531-12.429687-14.199218-19.953124-19.949218l-5.8125 4.210937c-3.242188 2.347657-7.574219 2.535157-11.007813.476563-7.835937-4.699219-16.3125-8.207032-25.199219-10.425782-3.886718-.972656-6.816406-4.167968-7.449218-8.125l-1.132813-7.09375c-9.328125-1.230468-18.894531-1.230468-28.21875 0l-1.136719 7.09375c-.632812 3.957032-3.5625 7.152344-7.449218 8.125-8.882813 2.21875-17.363282 5.726563-25.195313 10.425782-3.433594 2.0625-7.765625 1.875-11.011719-.476563l-5.808594-4.210937c-7.523437 5.75-14.203124 12.425781-19.953124 19.949218l4.207031 5.804688c2.351562 3.246094 2.539062 7.578125.476562 11.015625-4.699219 7.832031-8.207031 16.308594-10.429687 25.1875-.96875 3.890625-4.167969 6.820313-8.121094 7.453125l-7.097656 1.132812c-.613282 4.660157-.925782 9.378907-.925782 14.101563s.3125 9.445313.925782 14.105469l7.097656 1.132812c3.953125.632813 7.152344 3.5625 8.121094 7.449219 2.222656 8.882813 5.730468 17.355469 10.429687 25.191406 2.0625 3.433594 1.875 7.769531-.476562 11.011719l-4.207031 5.804688c5.75 7.523437 12.429687 14.199218 19.953124 19.949218l5.8125-4.210937c3.242188-2.347657 7.574219-2.535157 11.007813-.476563 7.835937 4.699219 16.3125 8.207032 25.195313 10.425782 3.886718.972656 6.820312 4.167968 7.453124 8.125zm0 0" fill="#ff8800"/><path d="m362.375 202.011719c-41.628906 0-75.496094-33.867188-75.496094-75.496094s33.867188-75.496094 75.496094-75.496094 75.496094 33.867188 75.496094 75.496094-33.867188 75.496094-75.496094 75.496094zm0-130.992188c-30.601562 0-55.496094 24.898438-55.496094 55.496094 0 30.601563 24.894532 55.496094 55.496094 55.496094 30.597656 0 55.496094-24.894531 55.496094-55.496094 0-30.597656-24.894532-55.496094-55.496094-55.496094zm0 0" fill="#ff8800"/><path d="m422.109375 426.484375c-5.921875 0-11.847656-.582031-17.609375-1.726563-4.105469-.816406-7.265625-4.097656-7.925781-8.230468l-.5625-3.511719c-3.246094-1.105469-6.414063-2.417969-9.488281-3.929687l-2.878907 2.082031c-3.386719 2.453125-7.941406 2.539062-11.417969.21875-9.910156-6.621094-18.289062-14.996094-24.910156-24.902344-2.324218-3.476563-2.238281-8.035156.21875-11.425781l2.082032-2.871094c-1.511719-3.074219-2.820313-6.242188-3.929688-9.484375l-3.515625-.5625c-4.132813-.660156-7.414063-3.820313-8.230469-7.921875-1.144531-5.761719-1.726562-11.6875-1.726562-17.609375s.582031-11.847656 1.726562-17.605469c.816406-4.105468 4.097656-7.265625 8.230469-7.925781l3.515625-.5625c1.105469-3.242187 2.417969-6.410156 3.925781-9.484375l-2.078125-2.871094c-2.457031-3.386718-2.542968-7.945312-.21875-11.425781 6.621094-9.90625 15.003906-18.285156 24.910156-24.902344 3.476563-2.320312 8.03125-2.234375 11.417969.21875l2.878907 2.082031c3.074218-1.507812 6.242187-2.820312 9.488281-3.925781l.5625-3.515625c.660156-4.128906 3.820312-7.410156 7.925781-8.226562 11.523438-2.292969 23.691406-2.292969 35.21875 0 4.101562.816406 7.265625 4.097656 7.925781 8.226562l.5625 3.515625c3.242188 1.105469 6.414063 2.417969 9.488281 3.925781l2.875-2.082031c3.386719-2.453125 7.941407-2.539062 11.417969-.21875 9.910157 6.617188 18.289063 14.996094 24.910157 24.902344 2.324218 3.480469 2.238281 8.039063-.214844 11.425781l-2.082032 2.871094c1.507813 3.074219 2.820313 6.242188 3.925782 9.484375l3.519531.5625c4.128906.660156 7.414063 3.824219 8.226563 7.925781 1.148437 5.765625 1.726562 11.6875 1.726562 17.605469s-.578125 11.839844-1.726562 17.605469c-.8125 4.105468-4.097657 7.265625-8.230469 7.925781l-3.515625.5625c-1.105469 3.242187-2.417969 6.410156-3.925782 9.480469l2.082032 2.875c2.453125 3.386718 2.539062 7.945312.214844 11.421875-6.617188 9.90625-15 18.285156-24.90625 24.902343-3.476563 2.324219-8.035157 2.238282-11.421876-.214843l-2.875-2.082031c-3.074218 1.511718-6.246093 2.820312-9.488281 3.925781l-.5625 3.515625c-.660156 4.128906-3.824219 7.414062-7.925781 8.230468-5.765625 1.144532-11.691406 1.726563-17.609375 1.726563zm-6.941406-20.339844c4.601562.453125 9.273437.453125 13.882812 0l.398438-2.507812c.632812-3.957031 3.566406-7.152344 7.453125-8.121094 5.785156-1.449219 11.308594-3.734375 16.414062-6.792969 3.4375-2.0625 7.769532-1.871094 11.007813.476563l2.058593 1.488281c3.59375-2.941406 6.875-6.21875 9.8125-9.8125l-1.484374-2.050781c-2.351563-3.246094-2.539063-7.578125-.476563-11.011719 3.058594-5.105469 5.347656-10.625 6.792969-16.410156.96875-3.886719 4.167968-6.820313 8.125-7.453125l2.507812-.398438c.226563-2.300781.339844-4.621093.339844-6.9375 0-2.320312-.113281-4.636719-.339844-6.9375l-2.511718-.402343c-3.953126-.628907-7.152344-3.5625-8.121094-7.449219-1.445313-5.785157-3.734375-11.304688-6.792969-16.410157-2.0625-3.433593-1.875-7.769531.476563-11.011718l1.484374-2.050782c-2.9375-3.59375-6.21875-6.871093-9.8125-9.8125l-2.058593 1.488282c-3.238281 2.347656-7.570313 2.535156-11.007813.476562-5.105468-3.0625-10.628906-5.347656-16.414062-6.792968-3.886719-.96875-6.820313-4.167969-7.453125-8.121094l-.398438-2.507813c-4.605469-.453125-9.28125-.453125-13.882812 0l-.402344 2.507813c-.632813 3.953125-3.5625 7.152344-7.449219 8.121094-5.789062 1.445312-11.3125 3.730468-16.417968 6.792968-3.433594 2.0625-7.765626 1.871094-11.007813-.476562l-2.054687-1.488282c-3.59375 2.941407-6.875 6.21875-9.816407 9.8125l1.488281 2.050782c2.351563 3.242187 2.539063 7.578125.476563 11.011718-3.0625 5.105469-5.347656 10.625-6.792969 16.410157-.972656 3.886719-4.167968 6.820312-8.125 7.449219l-2.507812.402343c-.226563 2.300781-.339844 4.617188-.339844 6.9375 0 2.320313.113281 4.636719.339844 6.9375l2.507812.398438c3.957032.632812 7.152344 3.566406 8.125 7.449219 1.445313 5.789062 3.730469 11.308593 6.792969 16.410156 2.0625 3.4375 1.875 7.769531-.476563 11.015625l-1.488281 2.050781c2.941407 3.59375 6.222657 6.871094 9.816407 9.8125l2.054687-1.492188c3.242187-2.347656 7.574219-2.535156 11.007813-.476562 5.105468 3.0625 10.628906 5.347656 16.417968 6.792969 3.886719.972656 6.816406 4.167969 7.449219 8.125zm0 0" fill="#ff8800"/><path d="m422.109375 380.53125c-24.21875 0-43.925781-19.703125-43.925781-43.921875s19.707031-43.921875 43.925781-43.921875 43.921875 19.703125 43.921875 43.921875-19.703125 43.921875-43.921875 43.921875zm0-67.84375c-13.191406 0-23.925781 10.730469-23.925781 23.921875s10.734375 23.921875 23.925781 23.921875 23.921875-10.730469 23.921875-23.921875-10.730469-23.921875-23.921875-23.921875zm0 0" fill="#ff8800"/></svg>
