<?xml version="1.0"?>
<svg xmlns="http://www.w3.org/2000/svg" height="512px" viewBox="0 0 480 480" width="512px"><path d="m344 112h48c17.671875 0 32-14.328125 32-32v-16c0-17.671875-14.328125-32-32-32h-48c-17.671875 0-32 14.328125-32 32v64c0 4.417969 3.582031 8 8 8s8-3.582031 8-8c0-8.835938 7.164062-16 16-16zm-16-48c0-8.835938 7.164062-16 16-16h48c8.835938 0 16 7.164062 16 16v16c0 8.835938-7.164062 16-16 16h-48c-5.621094-.007812-11.140625 1.476562-16 4.296875zm0 0" fill="#FFFFFF"/><path d="m344 64h16v16h-16zm0 0" fill="#FFFFFF"/><path d="m376 64h16v16h-16zm0 0" fill="#FFFFFF"/><path d="m152 64h-48c-17.671875 0-32 14.328125-32 32v16c0 17.671875 14.328125 32 32 32h48c8.835938 0 16 7.164062 16 16 0 4.417969 3.582031 8 8 8s8-3.582031 8-8v-64c0-17.671875-14.328125-32-32-32zm16 68.296875c-4.859375-2.820313-10.378906-4.304687-16-4.296875h-48c-8.835938 0-16-7.164062-16-16v-16c0-8.835938 7.164062-16 16-16h48c8.835938 0 16 7.164062 16 16zm0 0" fill="#FFFFFF"/><path d="m136 96h16v16h-16zm0 0" fill="#FFFFFF"/><path d="m104 96h16v16h-16zm0 0" fill="#FFFFFF"/><path d="m429.863281 312h42.136719c4.417969 0 8-3.582031 8-8v-296c0-4.417969-3.582031-8-8-8h-464c-4.417969 0-8 3.582031-8 8v296c0 4.417969 3.582031 8 8 8h44.496094c1.722656 1.929688 3.59375 3.71875 5.601562 5.351562-34.816406 12.597657-58.0312498 45.625-58.097656 82.648438v72c0 4.417969 3.582031 8 8 8h160c4.417969 0 8-3.582031 8-8v-72c-.0625-37.015625-23.265625-70.039062-58.0625-82.648438 2.003906-1.632812 3.875-3.421874 5.597656-5.351562h84.464844v24h-16c-4.417969 0-8 3.582031-8 8v32c0 4.417969 3.582031 8 8 8h96c4.417969 0 8-3.582031 8-8v-32c0-4.417969-3.582031-8-8-8h-16v-24h90.136719c1.152343 1.410156 2.394531 2.746094 3.710937 4-36.746094 11.492188-61.785156 45.5-61.847656 84v72c0 4.417969 3.582031 8 8 8h160c4.417969 0 8-3.582031 8-8v-72c-.058594-36.304688-22.382812-68.851562-56.230469-81.976562 2.222657-1.804688 4.261719-3.820313 6.09375-6.023438zm-5.863281-56h-64c-8.835938 0-16-7.164062-16-16v-12.296875c4.859375 2.820313 10.378906 4.304687 16 4.296875h48c8.835938 0 16 7.164062 16 16zm-51.273438 43.542969c-3.085937-4.59375-4.730468-10.007813-4.726562-15.542969v-12h56v12c-.011719 12.324219-8.082031 23.195312-19.875 26.769531-11.796875 3.578125-24.542969-.980469-31.398438-11.226562zm-252.726562-43.542969h-64v-8c0-8.835938 7.164062-16 16-16h48c5.621094.007812 11.140625-1.476562 16-4.296875v12.296875c0 8.835938-7.164062 16-16 16zm40 144v64h-144v-64c0-39.765625 32.234375-72 72-72s72 32.234375 72 72zm-97.441406-100.800781c-4.230469-5.507813-6.535156-12.253907-6.558594-19.199219v-8h64v8c.0625 13.765625-8.714844 26.019531-21.773438 30.382812-13.054687 4.363282-27.4375-.144531-35.667968-11.183593zm217.441406 68.800781h-80v-16h80zm-24-32h-32v-24h32zm8-40h-64v-64c0-13.253906 10.746094-24 24-24h8v72h16v-72h8c13.253906 0 24 10.746094 24 24v64zm0-152h-48c0-8.835938 7.164062-16 16-16h32c5.621094.007812 11.140625-1.476562 16-4.296875v4.296875c0 8.835938-7.164062 16-16 16zm-48 16h48v8c0 13.253906-10.746094 24-24 24s-24-10.746094-24-24zm80 136v-64c-.050781-16.761719-10.5625-31.710938-26.320312-37.433594 6.609374-7.269531 10.289062-16.738281 10.320312-26.566406v-12.449219c9.867188-5.671875 15.964844-16.171875 16-27.550781v-32c0-4.417969-3.582031-8-8-8s-8 3.582031-8 8c0 8.835938-7.164062 16-16 16h-32c-17.671875 0-32 14.328125-32 32v24c.03125 9.828125 3.710938 19.296875 10.320312 26.566406-15.757812 5.722656-26.269531 20.671875-26.320312 37.433594v64h-50.808594c.054688-.144531.066406-.304688.121094-.449219.535156-1.640625.984375-3.3125 1.335938-5.007812.199218-.878907.503906-1.734375.664062-2.632813.453125-2.609375.683594-5.257812.6875-7.910156v-12.449219c9.867188-5.671875 15.964844-16.171875 16-27.550781v-40c0-4.417969-3.582031-8-8-8s-8 3.582031-8 8c0 8.835938-7.164062 16-16 16h-48c-17.671875 0-32 14.328125-32 32v32c.003906 2.652344.234375 5.300781.6875 7.910156.152344.898438.457031 1.753906.664062 2.632813.351563 1.695312.800782 3.367187 1.335938 5.007812.046875.144531.066406.304688.121094.449219h-26.808594v-280h448v280h-25.664062c.34375-1.214844.542968-2.472656.800781-3.71875.128906-.664062.320312-1.3125.414062-1.984375.300781-2.085937.449219-4.191406.449219-6.296875v-36c0-17.671875-14.328125-32-32-32h-48c-8.835938 0-16-7.164062-16-16 0-4.417969-3.582031-8-8-8s-8 3.582031-8 8v40c.054688 14.546875 9.914062 27.226562 24 30.863281v13.136719c.003906 2.105469.160156 4.210938.464844 6.296875.09375.671875.289062 1.320313.414062 1.984375.242188 1.246094.441406 2.503906.800782 3.71875zm168 104v64h-144v-64c0-39.765625 32.234375-72 72-72s72 32.234375 72 72zm0 0" fill="#FFFFFF"/></svg>
